<?xml version="1.0" encoding="UTF-8"?><svg id="a" xmlns="http://www.w3.org/2000/svg" viewBox="0 0 1000 259.02"><path d="M413.63,25.35c-8.96,6.92-4.95,28.37-5.83,41.66-1.53,31.5,4.86,70.3-7.71,93.8-12.91,24.98-52.29,26.99-71.59,8.5-18.61-21.65-13.71-39.47-14.69-73.34-.04-14.86.07-31.52-.04-45.99.24-17.18-5.57-24.1-9.15-12.8-2.58,7.59-2.43,21.22-5.17,32.34-3.21,12.07-7.42,23.77-8.4,38.03-1.73,31.34.42,72.52,33.39,86.98,25.39,11.64,65.61,10.61,86.38-8.92,24.89-25.8,19.33-56.76,20.22-92.01-.06-17.73.13-38.24-.11-51.26.62-12.89-8.23-23.1-16.83-17.33l-.49.35Z"/><path d="M484.84,24.73c7.82,2.41,4.35,17.55,5.1,29.29,0,32.4,0,76.71,0,109.54-.55,14.18,1.34,22.53-1.42,29.87-3.44,6.07-14.99,6.16-19.42,1.38-2.18-2.32-2.34-6.35-2.38-9.83-.03-29.96-.03-118.23,0-148.19-1.3-10.91,7.91-15.58,17.59-12.28l.53.22Z"/><path d="M389.49,19.43c-22.34-4.96-53.74-4.53-73.8,9.37-8.19,6.5-5.46,16.61-6.78,30.53-1.22,16.7-12.06,31.37-26.12,40-7.27,4.94-17.56,8.94-20.98,16.1-3.95,12.63,7.08,28.06,1.93,41.78-9.03,31.52-44.4,42.13-75.63,45.12-17.3,1.82-34.94-.78-52.12,1.57-18.96,1.3-43.61,14.82-22.09,28.82,6.41,3.93,14.52,6.41,22.16,7.44,16.14,2.61,36.67-2.94,41.32-3.01.6-.03.97,0,1.11.09-3.81,3-11.09,4.06-16.75,5.46-15.39,3.18-33.79,1.51-47.17-4.87-8.48-3.74-16.53-8.41-25.41-10.95-16.57-5.62-36.2.76-52.72-4.47C1.89,211.29,1.5,165.47,16.6,137.91c20.17-43.76,64.86-81.11,111.03-93.05C192.53,27.7,224.18-.9,295.51,23.27c9.51,1.91,18.83-.47,27.97-3.58,20.31-7.37,50.63-13.43,70.09-.59.12.27-.07.45-.56.53-1.34.01-.91.12-2.92-.12l-.6-.08ZM55.63,101.74c-22.22,26.11-46.47,52.99-43.46,85.76,7.5,55.42,94.55,31.45,65.47,11.2-7.45-3.57-19.43-3.03-21.4-4.47-.93-.63.04-1.59,2.26-2.69,5.59-2.79,17.8-7.48,22-14.88,2.87-4.51,3.76-10.74,4.52-16.37,3.73-32.48,19.88-66.86,46.37-94.01,3.87-4.93,15.87-13.5,14.16-18.68-5.51-2.16-14.57,2.33-20.7,4.43-26.11,10.9-49.08,28.58-68.28,48.72l-.94,1ZM163.72,46.76c-12.92,1.62-23.09,13.77-31.95,23-24.08,26.11-38.88,56.16-44.05,83.63-1.11,9.73-6.22,27.28,5.51,31.47,15.63-.68,28.95-15.04,41.44-24.18,25.72-21.68,51.2-50.51,52.87-80.82,1.03-14.06-6.62-33.55-22.83-33.17l-.98.07ZM101.69,191.35c-3.99-.35-11.14-3.96-14.32-1.49-2,4.21,2.49,16.17,4.8,19.17,3.02,2.66,6.37.19,10.13-1.65,15.6-9.24,24.97-11.21.59-15.76l-1.2-.27ZM254.15,18.31c-22.02-.3-65.7,5.71-77.77,21.62-2.31,6.16,2.55,11.44,5.44,16.91,8.68,12.53,9.37,29.21,3.88,43.4-12.93,35.27-50.08,62.87-83.65,80.36-8.13,4.31-11.02,7.73-6.52,9.94,34.24,11.09,80.9-47.6,106.69-70,24.47-24.22,49.38-49.33,76.61-69.71,34.62-22.87,13.34-30.29-23.25-32.48l-1.44-.04ZM223.12,115.67c-21.78,24.09-50.25,51.02-73.06,68.06-20.12,14.38-8.08,17.66,10.14,18.04,36.42,1.19,80.21-10.88,92.26-48.32,1.47-5.04,2.1-10.26,1.55-15.44-1.2-12.54-11.9-22.28-12.36-25.97-.2-1,.11-1.73.93-2.35,3.52-2.77,20.21-3.55,32.64-12.57,16.11-9.89,34.07-35.79,29.74-53.58-10.28-21.17-71.75,63.73-80.99,71.18l-.85.94Z"/><path d="M564.71,113.72c4.28-2.6,15.17-5.56,13.63-11.67-2.06-4.18-17.43-2.97-25.49-7.77-6.12-3.61-6.68-11.9-6.63-23.66-.27-12.18.7-26.51-1.03-34.99-1.63-14.13-23.72-17.62-26.14-3.61-.93,33.14-.06,118.39-.32,151.72-2.25,13.89,15.98,19.74,24.41,7.23,6.37-13.95,1.36-41.24,3.51-55.7,1.32-12.86,7.69-16.8,17.18-21.14l.88-.42Z"/><path d="M642.34,25.91c-7.78,6.06-5.93,19.21-6.22,29.58-.27,16.66,3.69,38.68-16.12,44.21-8.59,3.67-22.06,7.93-20.98,13.66,8.09,8.39,28.19.46,34.63,12.2,5.29,13.47.87,42.92,2.94,56.84.4,5.27,3.17,10.98,7,13.08,9.36,5.58,21.1.28,19.8-10.87.08-28.45.01-109.68.04-143.46-.06-3.92.22-7.57-.8-11.17-2.07-6.92-12.62-9.14-19.66-4.53l-.61.45Z"/><path d="M861.6,70c9.03-5.79,13.47-9.59,23.61-12.64,3.99-1.83,10.24-3.95,8.42-9.47-1.48-4.54-8.07-13.37-11.72-19.06-2.2-3.14-4.85-6.08-8.84-6.72-5.54-.83-12.44-.84-18.05-.09-7.05.04-3.76,15.54-4.48,22.59.11,8.19-.26,21.07.22,27.79.52,5.26,3.95,1.94,9.88-1.8l.97-.6Z"/><path d="M868.79,83.61c-6.35,5.27-16.93,11.38-16.84,21.16-.37,16.69-.1,64.74-.14,83.63-.49,6.25,2.63,10.84,9.02,10.92,5.34.52,12.73-.53,12.79-7.15.43-16.68.06-69.73.18-93.14-.2-12.33.9-19.36-4.48-15.77l-.52.35Z"/><path d="M975.46,24.73c-7.02,4.48-5.69,12.11-5.87,26.65,0,22.05,0,54.39,0,77.42-.15,11.34.39,20.61-.5,29.43-.95,5.73-4.67-.59-6.58-2.92-10.35-14.61-40.04-59.33-54.18-79.62-4.46-7.61-15.94-14.75-21.1-4.54-3.54,11.15,4.87,17.04,14.25,32.38,15.04,22.18,39.15,57.73,53.41,78.73,8.06,16.74,38.19,24.15,37.83,1,.08-30.24.08-115.51,0-145.74,1.06-9.78-7.69-17.7-16.75-13.07l-.5.28Z"/><path d="M988.23,47.07c-.85.06-3.74-.71-7.76-1.89-23.03-9.99-48.71,1.04-68.09,15.37-39.31,27.6-80.51,69.07-109.16,106.35-5.53,5.6-22.89,38.54-29.01,21.39-1.45-4.25-1.84-7.27-3.1-11.45-5.2-23.79-29.16-7.36-41.54,2.1-38.3,28.29-65.44,42.76-96.51,50.44-20.14,4.4-45.02,3.82-61.51-10.49-30.51-26.75-43.61-71.79-13.88-104.16,17.93-23.94,53.81-34.82,82.52-44.56,36.67-13.06,81.24-36.97,117.05-13.51,18.24,13.96,7.78,38.87,4.17,56.58-3.22,25.62,21.81,5.95,30.43-2.08,21.98-18.07,51.57-38.87,80.94-53.15,33.89-15.89,82.09-32.49,115.63-10.98l-.15.02ZM544.16,155.07c-3.65,12.33,9.7,53.31,17.3,24.47,5.7-26.51,20.26-52.82,47.27-79.28,4.72-4.7,10.72-9.76,15.24-14.07,3.61-3.79,6.37-6.15,3.9-7.51-33.47,2.64-79.43,38.06-83.57,75.17l-.15,1.23ZM734.52,105.43c-25.91-16.92-68.49-36.55-98.41-18.98-30.75,20.84-67.36,59.31-72.98,92.76-.97,13.98,11.4,20.44,26.49,21.61,32.98,1.95,61.19-11.11,91.48-27.84,18.25-10.45,33.86-21.33,47.06-32.34,13.28-9.83,21.16-24.39,7.22-34.5l-.86-.71ZM755.95,127.41c-5.98-.31-14.54,7.33-19.85,12.23-7.72,7.11-15.91,13.9-24.47,20.19-34.79,25.3-74.17,44.16-116.44,45.15-8.68.89-27.5-4.65-29.54,4.37.77,6.7,11.36,13.73,18.63,16.34,54.26,16.51,104.07-27.17,154.63-66.8,6.73-5.26,27.39-26.12,17.57-31.41l-.52-.07ZM732.5,47.44c-22.76-.29-46.64,7.95-67.09,18.34-3.27,2.15-8.36,3.79-8.47,7.84.64,3.09,11.23,4.26,21.09,6.93,16.07,4.22,33.9,11.63,49.42,22.41,7.35,4.88,14.76,12.29,23.34,11.04,5.7-.98,10.05-6.4,12.89-11.4,16.3-27.42,1.52-55.25-29.96-55.12l-1.22-.04ZM909.62,45.56c-39.86,15.19-79.04,42.17-110.17,69.52-17.82,14.78-41.75,35.67-31.52,60.54,4.45,8.52,9.15.91,14.02-4.65,6.64-8.51,14.95-18.71,22.74-27.33,39.32-42.44,78.99-78.67,129.12-103.33,3.25-1.83,5.33-3.06,2.83-2.93-3.02.24-14.51,3.5-25.74,7.69l-1.29.49Z"/></svg>